<?xml version="1.0" encoding="UTF-8"?>
<svg version="1.1" xmlns="http://www.w3.org/2000/svg" width="512" height="512">
<path d="M0 0 C15.20237336 12.94126087 25.43480067 30.01396535 31.40625 48.9140625 C31.61942871 49.58083008 31.83260742 50.24759766 32.05224609 50.93457031 C37.06874664 67.38041746 37.55571372 86.31620762 33.40625 102.9140625 C-18.40375 102.9140625 -70.21375 102.9140625 -123.59375 102.9140625 C-122.21748781 87.77517838 -118.83969309 78.61922151 -107.84375 68.1640625 C-95.82773799 58.16618378 -81.66266412 57.60928305 -66.7421875 57.71875 C-65.231905 57.72248808 -63.72162004 57.72533129 -62.21133423 57.72732544 C-58.26911522 57.73489943 -54.32704759 57.754493 -50.3848877 57.7767334 C-46.34906053 57.79732747 -42.3132085 57.80635593 -38.27734375 57.81640625 C-30.38274364 57.8377459 -22.48826574 57.87180484 -14.59375 57.9140625 C-15.6649139 55.85443764 -16.74475662 53.79932526 -17.828125 51.74609375 C-18.42850586 50.60116455 -19.02888672 49.45623535 -19.64746094 48.27661133 C-27.21115303 35.2090334 -39.52433047 26.74065503 -53.59375 21.9140625 C-54.295 21.66785156 -54.99625 21.42164063 -55.71875 21.16796875 C-70.74264076 16.91315594 -88.36801297 19.71228003 -101.84375 27.0390625 C-117.3144463 36.8613972 -127.58498649 49.97007345 -131.59375 67.9140625 C-134.59012674 83.4463011 -132.21508701 100.44465269 -123.59375 113.9140625 C-113.16937861 128.73236247 -99.30373132 138.0311252 -81.49121094 141.4927063 C-76.17683133 142.26553701 -70.86114603 142.21279813 -65.5 142.22265625 C-62.98046634 142.24780652 -60.46093514 142.27320468 -57.94140625 142.29882812 C-54.01156199 142.3275687 -50.08176029 142.35161968 -46.15185547 142.37036133 C-42.33018953 142.39209977 -38.50899948 142.43153063 -34.6875 142.47265625 C-33.52367798 142.47277206 -32.35985596 142.47288788 -31.1607666 142.4730072 C-17.87279744 142.63295408 -7.18581611 146.35481473 2.59375 155.4765625 C11.36836535 164.64692255 15.46821027 175.37031286 15.40625 187.9140625 C2.51385203 187.98390037 -10.37850013 188.03704422 -23.2710495 188.06949902 C-29.25905592 188.08508401 -35.2469319 188.10618992 -41.23486328 188.14038086 C-47.02503218 188.17323167 -52.81507644 188.19096924 -58.60533142 188.19869423 C-60.80266783 188.20419192 -62.99999825 188.21492602 -65.19728088 188.23125267 C-97.80231661 188.4636509 -123.76578925 179.96557597 -148.08984375 157.4765625 C-169.99940755 135.0542944 -179.14097044 108.13924355 -178.9453125 77.20898438 C-178.37845471 48.00006191 -166.55980155 22.40070739 -145.59375 1.9140625 C-103.20379194 -35.95915385 -43.53669561 -35.01294496 0 0 Z " fill="#1D50AE" transform="translate(327.59375,175.0859375)"/>
<path d="M0 0 C1.01790619 0.00215515 2.03581238 0.0043103 3.08456421 0.00653076 C17.69363523 0.05620146 32.02575853 0.30709809 46.375 3.3125 C47.34985352 3.51117676 48.32470703 3.70985352 49.32910156 3.91455078 C97.7109774 14.03517194 141.69928269 35.9516877 177.375 70.3125 C178.3640332 71.26068604 178.3640332 71.26068604 179.37304688 72.22802734 C188.86130305 81.37247479 197.6012044 90.66984009 205.375 101.3125 C206.23306152 102.46355017 207.09113451 103.61459177 207.94921875 104.765625 C213.98736829 112.95680614 219.34595521 121.47054105 224.375 130.3125 C224.73948242 130.94430176 225.10396484 131.57610352 225.47949219 132.22705078 C247.08534998 169.97532572 256.85198095 212.74189997 256.6875 255.9375 C256.68534485 256.95540619 256.6831897 257.97331238 256.68096924 259.02206421 C256.63129854 273.63113523 256.38040191 287.96325853 253.375 302.3125 C253.07698486 303.77478027 253.07698486 303.77478027 252.77294922 305.26660156 C242.65232806 353.6484774 220.7358123 397.63678269 186.375 433.3125 C185.74287598 433.97185547 185.11075195 434.63121094 184.45947266 435.31054688 C175.31502521 444.79880305 166.01765991 453.5387044 155.375 461.3125 C154.22394983 462.17056152 153.07290823 463.02863451 151.921875 463.88671875 C143.73224019 469.92427396 135.22961724 475.30707302 126.375 480.3125 C125.66778809 480.7146875 124.96057617 481.116875 124.23193359 481.53125 C101.09654164 494.5566741 75.92537591 503.30551461 49.9375 508.625 C49.21860596 508.77235596 48.49971191 508.91971191 47.7590332 509.0715332 C33.08339502 511.86090125 18.55831162 512.66142619 3.64770508 512.62817383 C0.70811513 512.6250221 -2.2304558 512.64854926 -5.16992188 512.67382812 C-18.54306192 512.71848737 -31.43916711 511.51301542 -44.625 509.3125 C-46.33055054 509.03031616 -46.33055054 509.03031616 -48.07055664 508.74243164 C-91.33802759 500.97044532 -132.38793216 480.98345309 -165.625 452.3125 C-166.37007813 451.67828125 -167.11515625 451.0440625 -167.8828125 450.390625 C-181.38779833 438.57948485 -194.05918743 425.82889772 -204.625 411.3125 C-205.48149066 410.16255169 -206.33826433 409.01281411 -207.1953125 407.86328125 C-213.23534209 399.67315742 -218.61867614 391.16870382 -223.625 382.3125 C-224.0271875 381.60528809 -224.429375 380.89807617 -224.84375 380.16943359 C-237.8691741 357.03404164 -246.61801461 331.86287591 -251.9375 305.875 C-252.08485596 305.15610596 -252.23221191 304.43721191 -252.3840332 303.6965332 C-255.35789088 288.05024391 -255.99800362 272.57681954 -255.9375 256.6875 C-255.93534485 255.66959381 -255.9331897 254.65168762 -255.93096924 253.60293579 C-255.88129854 238.99386477 -255.63040191 224.66174147 -252.625 210.3125 C-252.42632324 209.33764648 -252.22764648 208.36279297 -252.02294922 207.35839844 C-241.90232806 158.9765226 -219.9858123 114.98821731 -185.625 79.3125 C-184.99287598 78.65314453 -184.36075195 77.99378906 -183.70947266 77.31445312 C-174.56502521 67.82619695 -165.26765991 59.0862956 -154.625 51.3125 C-153.47394983 50.45443848 -152.32290823 49.59636549 -151.171875 48.73828125 C-142.98224019 42.70072604 -134.47961724 37.31792698 -125.625 32.3125 C-124.91778809 31.9103125 -124.21057617 31.508125 -123.48193359 31.09375 C-100.34654164 18.0683259 -75.17537591 9.31948539 -49.1875 4 C-48.46860596 3.85264404 -47.74971191 3.70528809 -47.0090332 3.5534668 C-31.36274391 0.57960912 -15.88931954 -0.06050362 0 0 Z M-153.625 66.3125 C-154.19524902 66.78123535 -154.76549805 67.2499707 -155.35302734 67.73291016 C-168.34890394 78.43305375 -180.28958323 89.99425156 -190.625 103.3125 C-191.388125 104.24707031 -192.15125 105.18164062 -192.9375 106.14453125 C-216.56806307 135.64486559 -231.5471046 170.60582572 -239.625 207.3125 C-239.8523584 208.34455566 -240.0797168 209.37661133 -240.31396484 210.43994141 C-246.63496215 240.77198308 -246.23677059 275.08251658 -239.625 305.3125 C-239.38894043 306.41223145 -239.15288086 307.51196289 -238.90966797 308.64501953 C-230.68186038 345.81603679 -214.04640048 381.04619497 -189.625 410.3125 C-189.15626465 410.88274902 -188.6875293 411.45299805 -188.20458984 412.04052734 C-177.50444625 425.03640394 -165.94324844 436.97708323 -152.625 447.3125 C-151.22314453 448.4571875 -151.22314453 448.4571875 -149.79296875 449.625 C-102.35791045 487.62176043 -38.06326504 506.39919052 22.375 500.3125 C39.41547459 498.41437454 55.95978699 495.26991241 72.375 490.3125 C73.21015137 490.06161621 74.04530273 489.81073242 74.90576172 489.55224609 C120.14535401 475.619276 162.12406228 446.48136396 191.375 409.3125 C192.14328125 408.37277344 192.9115625 407.43304688 193.703125 406.46484375 C217.1779034 377.12137074 232.49180093 341.9082915 240.375 305.3125 C240.69041748 303.86689697 240.69041748 303.86689697 241.01220703 302.39208984 C249.04984429 263.62942275 245.75243598 221.98599167 234.375 184.3125 C234.12411621 183.47734863 233.87323242 182.64219727 233.61474609 181.78173828 C219.681776 136.54214599 190.54386396 94.56343772 153.375 65.3125 C152.43527344 64.54421875 151.49554688 63.7759375 150.52734375 62.984375 C68.99253222 -2.24347423 -48.82491983 -4.34833117 -153.625 66.3125 Z " fill="#1B58B0" transform="translate(255.625,-0.3125)"/>
</svg>
